<svg preserveAspectRatio="none" overflow="visible" style="display: block;" width="40.0096" height="36.0181" viewBox="0 0 40.0096 36.0181" fill="none" xmlns="http://www.w3.org/2000/svg">
<path id="Shape" d="M25.5 24C27.433 24 29 25.567 29 27.5L28.9979 29.4241C29.2312 33.8023 25.9759 36.0181 20.1336 36.0181C14.3157 36.0181 11 33.8384 11 29.5V27.5C11 25.567 12.567 24 14.5 24H25.5ZM25.5 27H14.5C14.2239 27 14 27.2239 14 27.5V29.5C14 31.8523 15.7733 33.0181 20.1336 33.0181C24.4694 33.0181 26.1251 31.8911 26 29.504V27.5C26 27.2239 25.7761 27 25.5 27ZM3.5 14L12.252 14.0002C12.0875 14.6394 12 15.3095 12 16C12 16.3382 12.021 16.6715 12.0617 16.9987L3.5 17C3.22386 17 3 17.2239 3 17.5V19.5C3 21.8523 4.77333 23.0181 9.13358 23.0181C10.0574 23.0181 10.8595 22.9669 11.5487 22.8633C10.4183 23.5794 9.57092 24.6979 9.20244 26.0163L9.13358 26.0181C3.31572 26.0181 0 23.8384 0 19.5V17.5C0 15.567 1.567 14 3.5 14ZM36.5 14C38.433 14 40 15.567 40 17.5L39.9979 19.4241C40.2312 23.8023 36.9759 26.0181 31.1336 26.0181L30.7971 26.0146C30.4181 24.6605 29.5339 23.5174 28.3606 22.8015C29.1339 22.9467 30.0545 23.0181 31.1336 23.0181C35.4694 23.0181 37.1251 21.8911 37 19.504V17.5C37 17.2239 36.7761 17 36.5 17L27.9383 16.9984C27.979 16.6713 28 16.3381 28 16C28 15.3095 27.9125 14.6394 27.748 14.0002L36.5 14ZM20 10C23.3137 10 26 12.6863 26 16C26 19.3137 23.3137 22 20 22C16.6863 22 14 19.3137 14 16C14 12.6863 16.6863 10 20 10ZM20 13C18.3431 13 17 14.3431 17 16C17 17.6569 18.3431 19 20 19C21.6569 19 23 17.6569 23 16C23 14.3431 21.6569 13 20 13ZM9 0C12.3137 0 15 2.68629 15 6C15 9.31371 12.3137 12 9 12C5.68629 12 3 9.31371 3 6C3 2.68629 5.68629 0 9 0ZM31 0C34.3137 0 37 2.68629 37 6C37 9.31371 34.3137 12 31 12C27.6863 12 25 9.31371 25 6C25 2.68629 27.6863 0 31 0ZM9 3C7.34315 3 6 4.34315 6 6C6 7.65685 7.34315 9 9 9C10.6569 9 12 7.65685 12 6C12 4.34315 10.6569 3 9 3ZM31 3C29.3431 3 28 4.34315 28 6C28 7.65685 29.3431 9 31 9C32.6569 9 34 7.65685 34 6C34 4.34315 32.6569 3 31 3Z" fill="#0078D4"/>
</svg>
