<svg xmlns="http://www.w3.org/2000/svg" xmlns:xlink="http://www.w3.org/1999/xlink" width="230" height="135"><g fill="none" fill-rule="evenodd"><g transform="rotate(-11 97.031 66.992)"><use xlink:href="#b" fill="#000" filter="url(#a)"/><use xlink:href="#b" fill="#f0f2f4"/></g><g fill="#d5d9dd" transform="rotate(-11 158.729 -54.247)"><rect width="62" height="3" rx="1.5"/><rect width="62" height="3" y="12" rx="1.5"/><rect width="62" height="3" y="24" rx="1.5"/><rect width="62" height="3" y="35" rx="1.5"/><rect width="62" height="3" y="47" rx="1.5"/><rect width="62" height="3" y="59" rx="1.5"/><rect width="62" height="3" y="71" rx="1.5"/></g><g filter="url(#c)" transform="rotate(-9 632.012 14.25)"><path fill="#57b6ff" d="m31.634 26.193 2.13-2.27c.113-.182.128-.547 0-.743-.17-.266-21.312-19.76-21.965-20.363 0 .182.07.308.07.504.1 1.598-1.575 2.51-2.57 2.117-.098.154.171.462-.013 1.12-.199.772-1.108 1.71-1.846 2.005-.37.154-.824.196-1.179.056v.014c-.127.266.44 1.051-.51 2.06-.81.855-1.491.617-2.031.617.085.07 21.723 20.167 21.965 20.321.326.21.625.098.866-.112l.596-.63c.483-.505.966-1.024 1.449-1.528Z"/><path fill="#0c94ff" d="M8.704 7.596c-.37.434-.838.813-1.264.981-.37.154-.824.196-1.179.056v.014c-.127.266.44 1.051-.51 2.06-.81.855-1.491.617-2.031.617.085.07 21.71 20.167 21.95 20.321.341.21.625.098.867-.112l.596-.63c.483-.505.966-1.024 1.448-1.528l1.69-1.78Z"/><path fill="#f7e0a2" d="M6.276 8.647s.937.533 2.144-.7c.426-.435.766-.968.866-1.388.17-.673-.085-.967.014-1.121.994.392 2.67-.519 2.57-2.117-.014-.196-.071-.322-.071-.504-.227-.14-3.223-.757-3.564-.827-.61-.126-1.164-.266-1.775-.392-.312-.07-.568-.126-.894-.197-.185-.042-.781-.196-.937-.182.255.729-.795 2.088-1.605 2.677-.454.308-.994.63-1.391.505 0 .07 0 .028.014.098l1.775 5.928c.057.21.199.743.312.897.54 0 1.221.238 2.03-.617.952-.995.54-1.934.512-2.06"/><path fill="#f4c02e" d="M6.276 8.647s.937.533 2.144-.7c.099-.099.184-.197.27-.309L3.82 3.153a4.2 4.2 0 0 1-.796.73c-.454.307-.994.63-1.391.504 0 .07 0 .028.014.098l1.775 5.928c.057.21.199.743.312.897.54 0 1.221.238 2.03-.617.952-.98.54-1.92.512-2.046"/><path fill="#000" fill-rule="nonzero" d="M1.633 4.4c.397.127.937-.196 1.391-.504.81-.575 1.86-1.948 1.605-2.677L3.549.911C3.224.841.356.126.186.028l-.057.07C.24.266.256.42.327.603Z"/><path fill="#1a1a1a" d="M3.748 3.251c.583-.658 1.065-1.5.895-2.018L3.563.925C3.28.869.91.266.328.085Z"/></g><path fill="#128912" d="m65.7 50.777-3.1-3.093 3.1-3.093 3.1 3.093Z"/><path fill="#69e66e" d="m155.784 41.498-3.1-3.093 3.1-3.093 3.1 3.093Z"/><path fill="#128912" d="m70.66 129.907 3.1 3.093 3.1-3.093-3.1-3.093Z"/><path fill="#69e66e" d="m103.21 32.219-4.65-4.64 4.65-4.64 4.65 4.64Zm58.9 97.688-4.65-4.64 4.65-4.639 4.65 4.64Z"/><path fill="#ffb901" d="m129.25 26.29 6.2 6.187 6.2-6.186-6.2-6.186Z"/><path fill="#128912" d="m44 81.707 6.2 6.186 6.2-6.186-6.2-6.187ZM216.05 53.87l-6.2-6.186 6.2-6.186 6.2 6.186Z"/><path fill="#ff9a00" d="M212.95 118.823a3.097 3.097 0 0 1-3.1 3.093 3.097 3.097 0 0 1-3.1-3.093 3.1 3.1 0 0 1 3.1-3.093c1.711 0 3.1 1.386 3.1 3.093"/><path fill="#1e4424" d="M181.956 32.8a3.1 3.1 0 0 1-3.1 3.092 3.1 3.1 0 0 1-3.1-3.093 3.097 3.097 0 0 1 3.1-3.093c1.711 0 3.1 1.384 3.1 3.093M230 84.8a3.097 3.097 0 0 1-3.1 3.093 3.097 3.097 0 0 1-3.1-3.093 3.1 3.1 0 0 1 3.1-3.093c1.711 0 3.1 1.386 3.1 3.093"/><path fill="#ffb901" d="M123.36 115.73c0 3.417-2.776 6.186-6.2 6.186s-6.2-2.77-6.2-6.186 2.776-6.186 6.2-6.186 6.2 2.77 6.2 6.186"/></g></svg>