<svg width="206" height="160" viewBox="0 0 206 160" fill="none" xmlns="http://www.w3.org/2000/svg">
<path d="M202 0H4C1.79086 0 0 1.79086 0 4V156C0 158.209 1.79086 160 4 160H202C204.209 160 206 158.209 206 156V4C206 1.79086 204.209 0 202 0Z" fill="#F8F8F8"/>
<path d="M148.257 64H57.7429C56.228 64 55 64.8954 55 66V94C55 95.1046 56.228 96 57.7429 96H148.257C149.772 96 151 95.1046 151 94V66C151 64.8954 149.772 64 148.257 64Z" fill="black" fill-opacity="0.06"/>
<path d="M81 73V74.7109L75 80.7109V87H71V80.7109L65 74.7109V73H81ZM80 74H66V74.2891L72 80.2891V86H74V80.2891L80 74.2891V74Z" fill="black" fill-opacity="0.3"/>
<path d="M93 80H141" stroke="black" stroke-opacity="0.2" stroke-width="6"/>
</svg>
